# xmcd CD database file
# Copyright (C) 1997 Ti Kan
# 
# Track frame offsets:
#     150
#     17075
#     29620
#     40185
#     53630
#     67387
#     78912
#     91707
#     102152
#     117015
#     131215
#     144660
#     156990
#     170885
#     182400
#     203897
#     220285
#     235302
#     248957
#     263395
#     280720
#     295375
#     307715
# 
# Disc length: 4349 seconds
# 
# Revision: 1
# Processed by: cddbd v1.4b41PL1 Copyright (c) Steve Scherf et al.
# Submitted via: DiscPlay 4.0.2
# 
DISCID=4a10fb17
DTITLE=ADAMO - 23 PLUS GRANDES CHANSONS
DYEAR=1900
DGENRE=
TTITLE0=PLUIE
TTITLE1=SANS TOI MA MIE
TTITLE2=N'EST-CE PAS MERVEILLEUX
TTITLE3=TOMBE LA NEIGE
TTITLE4=VOUS PERMETTEZ MONSIEUR
TTITLE5=QUAND LES ROSES
TTITLE6=SI JIMAIS
TTITLE7=DOLCE PAOLA
TTITLE8=LA NUIT
TTITLE9=ELLE
TTITLE10=MES MAINS SUR TES HANCHES
TTITLE11=COMME TOUJOURS
TTITLE12=J'AIME
TTITLE13=TON NOM
TTITLE14=INCH ALLAH
TTITLE15=L'AMOUR TE RESSEMBLE
TTITLE16=NOTRE ROMAN
TTITLE17=UNE LARME AUX NUAGES
TTITLE18=LE RUISSEAU DE MON ENFANCE
TTITLE19=A DEMAIN SUR LA LUNE
TTITLE20=OUI LA MER A BERC'E TANT D'SMOURS AUCREUX  DE SES VAGUES LE TEMPS D
TTITLE20='UN E'T'E
TTITLE21=ET APRE'S
TTITLE22=C'EST MA VIE
EXTD=
EXTT0=
EXTT1=
EXTT2=
EXTT3=
EXTT4=
EXTT5=
EXTT6=
EXTT7=
EXTT8=
EXTT9=
EXTT10=
EXTT11=
EXTT12=
EXTT13=
EXTT14=
EXTT15=
EXTT16=
EXTT17=
EXTT18=
EXTT19=
EXTT20=
EXTT21=
EXTT22=
PLAYORDER=
